<svg class="absolute bottom-0 right-0 h-[14vw]" xmlns="http://www.w3.org/2000/svg" viewBox="0 0 458 199" fill="currentColor"><path d="M452 53.3C455.531 53.3 458 50.7538 458 47.0032C458 43.1495 455.531 40.5 452 40.5C448.469 40.5 446 43.0806 446 46.7968C446 50.6505 448.469 53.3 452 53.3ZM446.514 47.1753C446.514 43.8032 448.571 41.1538 452.137 41.1538C455.086 41.1538 457.486 43.2527 457.486 46.6247C457.486 49.9624 455.429 52.6462 451.897 52.6462C448.914 52.6462 446.514 50.5473 446.514 47.1753ZM449.806 50.3753H451.074V46.5903H451.28C452.789 46.5903 453.2 48.2764 453.577 50.3753H455.017L454.743 49.5495C454.057 47.5194 453.166 46.5559 451.931 46.4183C453.543 46.2807 454.297 45.4893 454.297 44.7667C454.297 43.8032 453.474 43.1495 451.52 43.1495H449.806V50.3753ZM451.074 46.2462V43.4591H451.451C452.549 43.4591 453.097 43.872 453.097 44.7667C453.097 45.6269 452.514 46.2462 451.314 46.2462H451.074Z" fill="currentColor"/><path d="M0.857422 198H30.3574C74.1074 198 102.107 174.25 102.107 138C102.107 103.5 79.8574 85 43.6074 80.75C79.1074 77 93.6074 61 93.6074 42C93.6074 20 <svg class="brand__svg" width="71" height="27" viewBox="0 0 71 27">
                      <path d="M40.7622 24.5917C40.7622 23.6724 41.4511 22.9829 42.3697 22.9829C43.2883 22.9829 43.9773 23.6724 43.9773 24.5917C43.9773 25.511 43.2883 26.2005 42.3697 26.2005C41.566 26.2005 40.7622 25.3961 40.7622 24.5917Z" fill="currentColor"></path>
                      <path d="M65.7937 8.96329C65.7937 8.04398 66.4826 7.35449 67.4012 7.35449C68.3198 7.35449 69.0087 8.04398 69.0087 8.96329C69.0087 9.88261 68.3198 10.5721 67.4012 10.5721C66.4826 10.5721 65.7937 9.88261 65.7937 8.96329Z" fill="currentColor"></path>
                      <path d="M59.019 18.3861C59.019 17.4668 59.708 16.7773 60.6266 16.7773C61.5451 16.7773 62.2341 17.4668 62.2341 18.3861C62.2341 19.3055 61.5451 19.9949 60.6266 19.9949C59.8228 19.9949 59.019 19.3055 59.019 18.3861Z" fill="currentColor"></path>
                      <path d="M41.3365 9.88276C40.5327 8.27396 39.6142 7.8143 39.04 7.58447H46.3887C45.9294 7.8143 45.0108 8.04413 45.0108 8.96344C45.0108 9.19327 45.1257 9.65293 45.3553 10.1126L48.3407 16.6627L46.5035 20.225L41.3365 9.88276Z" fill="currentColor"></path>
                      <path d="M51.8998 9.30819C51.8998 8.04413 50.9812 7.69939 50.2922 7.58447H54.6555C53.8517 7.8143 52.8183 8.27396 51.7849 10.1126C51.8998 9.88276 51.8998 9.65293 51.8998 9.30819Z" fill="currentColor"></path>
                      <path d="M66.7122 17.9266C66.7122 16.2029 65.2195 15.6283 63.0378 14.5941C60.8562 13.5599 59.019 12.7555 59.019 10.8019C59.019 8.73348 60.971 7.12468 64.1861 7.00977C63.1527 7.23959 62.3489 8.15891 62.3489 9.42296C62.3489 10.9168 63.612 11.4914 65.9084 12.5256C68.2049 13.5599 70.2717 14.4792 70.2717 16.6626C70.2717 19.1907 67.4011 20.3398 64.6454 20.4547C65.9084 20.2249 66.7122 19.1907 66.7122 17.9266Z" fill="currentColor"></path>
                      <path d="M21.0129 2.64303C21.0129 1.6088 20.3239 0.919313 19.2905 0.689485L24.4576 0V20.3398C24.4576 20.3398 22.6204 20.4547 20.8981 21.8337V2.64303H21.0129Z" fill="currentColor"></path>
                      <path d="M34.6764 14.0195C34.6764 10.4572 31.691 7.58432 27.9019 7.35449C30.1983 7.69923 30.8873 11.4914 30.8873 14.0195C30.8873 16.5476 30.1983 20.2249 27.9019 20.6845C31.8058 20.4547 34.6764 17.5819 34.6764 14.0195Z" fill="currentColor"></path>
                      <path d="M14.9269 14.0195C14.9269 10.4572 11.9415 7.58432 8.15234 7.35449C10.4488 7.69923 11.1377 11.4914 11.1377 14.0195C11.1377 16.5476 10.4488 20.2249 8.15234 20.6845C11.9415 20.4547 14.9269 17.5819 14.9269 14.0195Z" fill="currentColor"></path>
                      <path d="M0 14.0195C0 10.4572 2.9854 7.58432 6.77456 7.35449C4.4781 7.69923 3.78916 11.4914 3.78916 14.0195C3.78916 16.5476 4.4781 20.2249 6.77456 20.6845C2.9854 20.4547 0 17.5819 0 14.0195Z" fill="currentColor"></path></svg>76.3574 5 31.6074 5H0.857422V198ZM20.3574 193.25V83H26.1074C72.3574 83 81.8574 112.5 81.8574 138.5C81.8574 170.25 65.6074 193.25 28.6074 193.25H20.3574ZM20.3574 79.25V9.75H30.8574C60.8574 9.75 75.1074 20.75 75.1074 42.25C75.1074 66 57.8574 79.25 26.1074 79.25H20.3574Z" fill="currentColor"/><path d="M113.926 198H132.426V0.5H113.926V198Z" fill="currentColor"/><path d="M190.572 199C219.322 199 232.322 167.75 237.322 133.25H234.322C229.072 164.5 216.072 185.25 195.822 185.25C173.322 185.25 160.822 160.5 160.822 119.25C160.822 113.5 161.072 108.25 161.572 103.25H235.572C232.322 71 217.822 53 193.322 53C164.822 53 143.572 84.5 143.572 129.75C143.572 171.25 161.572 199 190.572 199ZM162.072 98.75C165.572 72.25 176.072 57.5 191.822 57.5C207.072 57.5 216.072 74.25 217.822 98.75H162.072Z" fill="currentColor"/><path d="M281.4 199C303.4 199 318.4 178.25 323.9 149.5L324.65 198H342.15V54.75H323.65V127.5C323.65 160 311.4 186.75 288.4 186.75C271.9 186.75 263.9 176 263.9 149.75V54.75H245.4V151C245.4 181.5 256.4 199 281.4 199Z" fill="currentColor"/><path d="M400.445 199C429.195 199 442.195 167.75 447.195 133.25H444.195C438.945 164.5 425.945 185.25 405.695 185.25C383.195 185.25 370.695 160.5 370.695 119.25C370.695 113.5 370.945 108.25 371.445 103.25H445.445C442.195 71 427.695 53 403.195 53C374.695 53 353.445 84.5 353.445 129.75C353.445 171.25 371.445 199 400.445 199ZM371.945 98.75C375.445 72.25 385.945 57.5 401.695 57.5C416.945 57.5 425.945 74.25 427.695 98.75H371.945Z" fill="currentColor"/></svg>